<svg xmlns="http://www.w3.org/2000/svg" viewBox="0 0 100 100"><path fill="#673AB7" d="M8.225 24.78h4.977c1.18 0 2.14.96 2.14 2.14V70.6c0 1.176-.96 2.14-2.14 2.14H8.225c-1.183 0-2.142-.964-2.142-2.14V26.92c0-1.18.96-2.14 2.142-2.14zm4.544 36.69c0-1.138-.92-2.064-2.06-2.064-1.135 0-2.055.927-2.055 2.064 0 1.135.92 2.05 2.054 2.05 1.14 0 2.06-.916 2.06-2.05zm0-25.41c0-1.136-.92-2.062-2.06-2.062-1.135 0-2.055.926-2.055 2.062 0 1.137.92 2.05 2.054 2.05 1.14 0 2.06-.914 2.06-2.05z"/><path fill="#3F51B5" d="M19.392 26.003h4.973c1.18 0 2.14.95 2.14 2.137v41.25c0 1.177-.96 2.134-2.14 2.134h-4.973c-1.184 0-2.14-.957-2.14-2.135V28.14c0-1.187.956-2.137 2.14-2.137zm4.545 34.764c0-1.135-.923-2.054-2.06-2.054-1.135 0-2.052.92-2.052 2.054 0 1.132.917 2.054 2.052 2.054 1.137 0 2.06-.92 2.06-2.052zm0-24.017c0-1.133-.923-2.052-2.06-2.052-1.135 0-2.052.92-2.052 2.052 0 1.137.917 2.064 2.052 2.064 1.137 0 2.06-.927 2.06-2.064z"/><path fill="#03A9F4" d="M30.558 27.172h4.973c1.184 0 2.144.96 2.144 2.137v38.9c0 1.183-.96 2.135-2.142 2.135H30.56c-1.182 0-2.14-.952-2.14-2.136v-38.9c0-1.18.958-2.14 2.14-2.14zm4.54 33.037c0-1.134-.918-2.06-2.053-2.06-1.136 0-2.06.926-2.06 2.06 0 1.136.924 2.055 2.06 2.055 1.135 0 2.054-.92 2.054-2.057zm0-22.898c0-1.132-.918-2.06-2.053-2.06-1.136 0-2.06.928-2.06 2.06 0 1.135.924 2.057 2.06 2.057 1.135 0 2.054-.923 2.054-2.058z"/><path fill="#4CAF50" d="M41.72 28.19h4.98c1.182 0 2.14.962 2.14 2.143v36.854c0 1.187-.958 2.138-2.14 2.138h-4.98c-1.18 0-2.14-.95-2.14-2.138V30.333c0-1.18.96-2.142 2.14-2.142zm4.546 31.042c0-1.135-.92-2.05-2.06-2.05-1.134 0-2.053.915-2.053 2.05 0 1.138.92 2.062 2.054 2.062 1.14 0 2.06-.924 2.06-2.062zm0-20.948c0-1.135-.92-2.052-2.06-2.052-1.134 0-2.053.917-2.053 2.052 0 1.136.92 2.054 2.054 2.054 1.14 0 2.06-.918 2.06-2.054z"/><path fill="#FFEB3B" d="M52.89 29.422h4.97c1.184 0 2.14.96 2.14 2.14v34.396c0 1.176-.956 2.14-2.14 2.14h-4.97c-1.186 0-2.143-.964-2.143-2.14V31.562c0-1.18.957-2.14 2.142-2.14zm4.54 29.215c0-1.146-.92-2.064-2.056-2.064s-2.054.92-2.054 2.064c0 1.132.92 2.054 2.054 2.054s2.056-.92 2.056-2.052zm0-19.747c0-1.135-.92-2.052-2.056-2.052s-2.054.917-2.054 2.052c0 1.138.92 2.057 2.054 2.057s2.056-.92 2.056-2.057z"/><path fill="#FF9800" d="M64.053 30.782h4.974c1.185 0 2.14.953 2.14 2.142v31.68c0 1.178-.955 2.14-2.14 2.14h-4.974c-1.182 0-2.14-.962-2.14-2.14v-31.68c0-1.19.958-2.142 2.14-2.142zm4.542 26.97c0-1.136-.92-2.063-2.054-2.063-1.136 0-2.057.925-2.057 2.06s.92 2.054 2.06 2.054c1.134 0 2.053-.92 2.053-2.054zm0-17.978c0-1.134-.92-2.052-2.054-2.052-1.136 0-2.057.918-2.057 2.052 0 1.135.92 2.054 2.06 2.054 1.134 0 2.053-.92 2.053-2.054z"/><path fill="#FF5722" d="M75.217 31.763h4.977c1.185 0 2.142.958 2.142 2.14V63.62c0 1.176-.957 2.135-2.142 2.135h-4.977c-1.178 0-2.14-.96-2.14-2.135V33.9c0-1.18.962-2.137 2.14-2.137zm4.545 25.132c0-1.135-.92-2.056-2.054-2.056s-2.06.92-2.06 2.054c0 1.133.925 2.05 2.06 2.05s2.054-.918 2.054-2.05zm0-16.273c0-1.132-.92-2.052-2.054-2.052s-2.06.92-2.06 2.052c0 1.138.925 2.063 2.06 2.063s2.054-.925 2.054-2.063z"/><path fill="#E91E63" d="M86.385 33.22h4.977c1.178 0 2.135.952 2.135 2.136v26.812c0 1.18-.957 2.14-2.135 2.14h-4.977c-1.185 0-2.142-.96-2.142-2.14V35.355c0-1.183.957-2.136 2.142-2.136zm4.54 23.04c0-1.134-.92-2.05-2.055-2.05s-2.054.916-2.054 2.05.92 2.063 2.054 2.063 2.056-.927 2.056-2.062zm0-15.003c0-1.137-.92-2.054-2.055-2.054s-2.054.917-2.054 2.054c0 1.136.92 2.052 2.054 2.052s2.056-.918 2.056-2.054z"/></svg>
